<svg width="374" height="431" viewBox="0 0 374 431" fill="none" xmlns="http://www.w3.org/2000/svg">
<path d="M75.7454 269.675C228.943 232.351 109.009 187.671 267.727 161.19C312.945 158.085 324.506 171.7 353.533 258.857C393.283 358.362 401.016 399.178 127.251 395.759C34.0449 401.47 -77.4523 306.999 75.7454 269.675Z" fill="url(#paint0_linear_242_21)"/>
<g filter="url(#filter0_d_242_21)">
<ellipse cx="286.486" cy="248.552" rx="15.853" ry="16.4192" fill="#FFE3C1"/>
</g>
<g filter="url(#filter1_d_242_21)">
<ellipse cx="186.839" cy="220.243" rx="107.574" ry="99.0812" fill="#FFE3C1"/>
</g>
<g filter="url(#filter2_d_242_21)">
<path d="M237.795 306.869C236.662 311.964 174.383 331.214 128.522 303.472L124.559 362.92C163.965 401.42 220.998 380.849 244.589 365.751C242.702 344.425 238.701 302.792 237.795 306.869Z" fill="#C780FA"/>
</g>
<rect x="243.893" y="316.45" width="52.0186" height="17.1297" transform="rotate(57.5872 243.893 316.45)" fill="#FFE3C1"/>
<circle cx="117.201" cy="312.381" r="11.8897" fill="#646464"/>
<rect x="90.8018" y="283.089" width="48.792" height="17.1297" transform="rotate(32.7725 90.8018 283.089)" fill="#FFE3C1"/>
<path d="M121.164 301.057L147.673 311.95C135.26 322.058 137.272 334.552 141.209 337.848C130.452 332.951 114.394 325.601 108.708 321.44C101.914 316.468 130.222 321.747 121.164 301.057Z" fill="#C780FA"/>
<path d="M195.331 254.214C178.535 251.949 152.415 250.251 150.603 250.251C151.736 258.555 152.302 270.973 165.89 281.391C179.478 291.808 190.236 268.935 195.331 254.214Z" fill="black"/>
<path d="M236.096 349.898L218.781 324.202C234.754 323.163 239.186 311.437 237.889 306.47C243.815 316.696 257.693 332.333 260.515 338.79C264.042 346.861 248.379 362.007 236.096 349.898Z" fill="#C780FA"/>
<g filter="url(#filter3_d_242_21)">
<ellipse cx="82.096" cy="291.016" rx="11.8897" ry="12.4559" fill="#FFE3C1"/>
</g>
<g filter="url(#filter4_d_242_21)">
<ellipse cx="88.3237" cy="283.655" rx="4.52943" ry="5.09561" fill="#FFE3C1"/>
</g>
<g filter="url(#filter5_d_242_21)">
<ellipse cx="266.961" cy="369.293" rx="11.8897" ry="12.4559" transform="rotate(166.645 266.961 369.293)" fill="#FFE3C1"/>
</g>
<g filter="url(#filter6_d_242_21)">
<ellipse cx="258.112" cy="369.543" rx="4.52943" ry="5.14984" transform="rotate(166.645 258.112 369.543)" fill="#FFE3C1"/>
</g>
<circle cx="221.942" cy="232.133" r="7.9265" fill="black"/>
<circle cx="120.596" cy="223.641" r="8.49267" fill="black"/>
<path d="M157.964 273.464L187.405 272.332C178.346 289.317 168.721 283.655 167.022 283.089C163.984 282.076 161.361 277.805 157.964 273.464Z" fill="#FC3131"/>
<path d="M106.442 203.824L131.354 198.162" stroke="black" stroke-width="3"/>
<line x1="222.842" y1="196.962" x2="245.489" y2="213.948" stroke="black" stroke-width="3"/>
<path d="M187.77 88.2576C211.084 126.546 181.128 143.623 180.857 150.712C180.586 157.801 159.984 117.174 187.77 88.2576Z" fill="#A8E890" stroke="#A8E890"/>
<path d="M122.844 125.348C170.187 121.239 169.091 155.746 175.331 159.116C181.571 162.487 133.614 163.123 122.844 125.348Z" fill="#A8E890" stroke="#A8E890"/>
<path d="M270.352 45.4253C270.879 127.993 207.564 126.301 200.437 137.209C193.309 148.117 199.263 64.4557 270.352 45.4253Z" fill="#A8E890" stroke="#A8E890"/>
<path d="M194.618 179.69C182.438 177.514 181.553 166.165 179.815 164.582C178.077 162.999 190.534 166.372 194.618 179.69Z" fill="#A8E890" stroke="#A8E890"/>
<path d="M216.066 142.879C204.544 168.808 184.864 159.375 181.077 161.788C177.291 164.202 191.006 138.841 216.066 142.879Z" fill="#A8E890" stroke="#A8E890"/>
<path d="M269.847 45.5671C226.31 72.7451 202.059 120.507 198.74 138.303C205.489 102.117 215.033 62.3252 269.847 45.5671Z" fill="#749F82" stroke="#749F82"/>
<mask id="mask0_242_21" style="mask-type:alpha" maskUnits="userSpaceOnUse" x="45" y="342" width="283" height="90">
<path d="M286.486 350.603C210.392 380.95 119.275 360.605 83.2282 346.639L46.4267 369.853L83.2282 425.904C145.885 427.603 271.879 431 274.597 431C277.994 431 381.604 312.669 286.486 350.603Z" fill="#D9D9D9" stroke="#DDDDDD"/>
</mask>
<g mask="url(#mask0_242_21)">
<path d="M75.7453 269.675C228.943 232.351 109.009 187.671 267.727 161.19C312.945 158.085 324.506 171.7 353.533 258.857C393.283 358.362 401.016 399.178 127.251 395.759C34.0448 401.47 -77.4524 306.999 75.7453 269.675Z" fill="url(#paint1_linear_242_21)"/>
</g>
<defs>
<filter id="filter0_d_242_21" x="266.633" y="232.133" width="39.706" height="40.8384" filterUnits="userSpaceOnUse" color-interpolation-filters="sRGB">
<feFlood flood-opacity="0" result="BackgroundImageFix"/>
<feColorMatrix in="SourceAlpha" type="matrix" values="0 0 0 0 0 0 0 0 0 0 0 0 0 0 0 0 0 0 127 0" result="hardAlpha"/>
<feOffset dy="4"/>
<feGaussianBlur stdDeviation="2"/>
<feComposite in2="hardAlpha" operator="out"/>
<feColorMatrix type="matrix" values="0 0 0 0 0 0 0 0 0 0 0 0 0 0 0 0 0 0 0.25 0"/>
<feBlend mode="normal" in2="BackgroundImageFix" result="effect1_dropShadow_242_21"/>
<feBlend mode="normal" in="SourceGraphic" in2="effect1_dropShadow_242_21" result="shape"/>
</filter>
<filter id="filter1_d_242_21" x="75.2649" y="121.162" width="223.148" height="206.162" filterUnits="userSpaceOnUse" color-interpolation-filters="sRGB">
<feFlood flood-opacity="0" result="BackgroundImageFix"/>
<feColorMatrix in="SourceAlpha" type="matrix" values="0 0 0 0 0 0 0 0 0 0 0 0 0 0 0 0 0 0 127 0" result="hardAlpha"/>
<feOffset dy="4"/>
<feGaussianBlur stdDeviation="2"/>
<feComposite in2="hardAlpha" operator="out"/>
<feColorMatrix type="matrix" values="0 0 0 0 0 0 0 0 0 0 0 0 0 0 0 0 0 0 0.25 0"/>
<feBlend mode="normal" in2="BackgroundImageFix" result="effect1_dropShadow_242_21"/>
<feBlend mode="normal" in="SourceGraphic" in2="effect1_dropShadow_242_21" result="shape"/>
</filter>
<filter id="filter2_d_242_21" x="120.559" y="303.472" width="128.03" height="89.4821" filterUnits="userSpaceOnUse" color-interpolation-filters="sRGB">
<feFlood flood-opacity="0" result="BackgroundImageFix"/>
<feColorMatrix in="SourceAlpha" type="matrix" values="0 0 0 0 0 0 0 0 0 0 0 0 0 0 0 0 0 0 127 0" result="hardAlpha"/>
<feOffset dy="4"/>
<feGaussianBlur stdDeviation="2"/>
<feComposite in2="hardAlpha" operator="out"/>
<feColorMatrix type="matrix" values="0 0 0 0 0 0 0 0 0 0 0 0 0 0 0 0 0 0 0.25 0"/>
<feBlend mode="normal" in2="BackgroundImageFix" result="effect1_dropShadow_242_21"/>
<feBlend mode="normal" in="SourceGraphic" in2="effect1_dropShadow_242_21" result="shape"/>
</filter>
<filter id="filter3_d_242_21" x="66.2063" y="278.56" width="31.7795" height="32.9119" filterUnits="userSpaceOnUse" color-interpolation-filters="sRGB">
<feFlood flood-opacity="0" result="BackgroundImageFix"/>
<feColorMatrix in="SourceAlpha" type="matrix" values="0 0 0 0 0 0 0 0 0 0 0 0 0 0 0 0 0 0 127 0" result="hardAlpha"/>
<feOffset dy="4"/>
<feGaussianBlur stdDeviation="2"/>
<feComposite in2="hardAlpha" operator="out"/>
<feColorMatrix type="matrix" values="0 0 0 0 0 0 0 0 0 0 0 0 0 0 0 0 0 0 0.25 0"/>
<feBlend mode="normal" in2="BackgroundImageFix" result="effect1_dropShadow_242_21"/>
<feBlend mode="normal" in="SourceGraphic" in2="effect1_dropShadow_242_21" result="shape"/>
</filter>
<filter id="filter4_d_242_21" x="79.7942" y="274.56" width="17.0589" height="18.1912" filterUnits="userSpaceOnUse" color-interpolation-filters="sRGB">
<feFlood flood-opacity="0" result="BackgroundImageFix"/>
<feColorMatrix in="SourceAlpha" type="matrix" values="0 0 0 0 0 0 0 0 0 0 0 0 0 0 0 0 0 0 127 0" result="hardAlpha"/>
<feOffset/>
<feGaussianBlur stdDeviation="2"/>
<feComposite in2="hardAlpha" operator="out"/>
<feColorMatrix type="matrix" values="0 0 0 0 0 0 0 0 0 0 0 0 0 0 0 0 0 0 0.25 0"/>
<feBlend mode="normal" in2="BackgroundImageFix" result="effect1_dropShadow_242_21"/>
<feBlend mode="normal" in="SourceGraphic" in2="effect1_dropShadow_242_21" result="shape"/>
</filter>
<filter id="filter5_d_242_21" x="251.037" y="356.864" width="31.8469" height="32.8582" filterUnits="userSpaceOnUse" color-interpolation-filters="sRGB">
<feFlood flood-opacity="0" result="BackgroundImageFix"/>
<feColorMatrix in="SourceAlpha" type="matrix" values="0 0 0 0 0 0 0 0 0 0 0 0 0 0 0 0 0 0 127 0" result="hardAlpha"/>
<feOffset dy="4"/>
<feGaussianBlur stdDeviation="2"/>
<feComposite in2="hardAlpha" operator="out"/>
<feColorMatrix type="matrix" values="0 0 0 0 0 0 0 0 0 0 0 0 0 0 0 0 0 0 0.25 0"/>
<feBlend mode="normal" in2="BackgroundImageFix" result="effect1_dropShadow_242_21"/>
<feBlend mode="normal" in="SourceGraphic" in2="effect1_dropShadow_242_21" result="shape"/>
</filter>
<filter id="filter6_d_242_21" x="249.546" y="360.424" width="17.1316" height="18.2394" filterUnits="userSpaceOnUse" color-interpolation-filters="sRGB">
<feFlood flood-opacity="0" result="BackgroundImageFix"/>
<feColorMatrix in="SourceAlpha" type="matrix" values="0 0 0 0 0 0 0 0 0 0 0 0 0 0 0 0 0 0 127 0" result="hardAlpha"/>
<feOffset/>
<feGaussianBlur stdDeviation="2"/>
<feComposite in2="hardAlpha" operator="out"/>
<feColorMatrix type="matrix" values="0 0 0 0 0 0 0 0 0 0 0 0 0 0 0 0 0 0 0.25 0"/>
<feBlend mode="normal" in2="BackgroundImageFix" result="effect1_dropShadow_242_21"/>
<feBlend mode="normal" in="SourceGraphic" in2="effect1_dropShadow_242_21" result="shape"/>
</filter>
<linearGradient id="paint0_linear_242_21" x1="242.419" y1="131.519" x2="174.483" y2="422.398" gradientUnits="userSpaceOnUse">
<stop stop-color="#2EC4B6"/>
<stop offset="1" stop-color="#CBF3F0"/>
</linearGradient>
<linearGradient id="paint1_linear_242_21" x1="242.419" y1="131.519" x2="174.483" y2="422.398" gradientUnits="userSpaceOnUse">
<stop stop-color="#2EC4B6"/>
<stop offset="1" stop-color="#CBF3F0"/>
</linearGradient>
</defs>
</svg>
