<svg width="81" height="70" viewBox="0 0 81 70" fill="none" xmlns="http://www.w3.org/2000/svg">
<path d="M52.0358 13.7524C48.0726 13.7624 44.1602 14.6407 40.5773 16.325C41.4785 19.1756 42.8803 28.7485 40.5773 33.1823C38.3736 37.425 29.9807 44.3227 25.9998 46C26.9482 52.3539 29.5484 56.6511 34.4392 60.8489C39.33 65.0466 45.5744 67.3588 52.0358 67.3646C59.1872 67.3646 66.0457 64.5404 71.1025 59.5133C76.1592 54.4862 79.0001 47.6679 79.0001 40.5585C79.0001 37.0383 78.3027 33.5525 76.9476 30.3003C75.5925 27.048 73.6063 24.0929 71.1025 21.6038C68.5986 19.1146 65.6261 17.1401 62.3546 15.7929C59.0832 14.4458 55.5768 13.7524 52.0358 13.7524Z" fill="#FF884B" stroke="#FF884B" stroke-width="3.77953" stroke-linejoin="round"/>
<path d="M37.4322 29.9583C41.363 15.7259 23.5959 1 23.5959 1C23.5959 1 12.118 31.2746 37.4322 29.9583Z" fill="#82CD47" stroke="#82CD47" stroke-width="0.882137"/>
<path d="M34.8224 34.4174C17.0407 48.4549 8.91485 46.07 1 41.8276C13.5875 20.6054 34.8224 34.4174 34.8224 34.4174Z" fill="#82CD47" stroke="#82CD47" stroke-width="0.886145"/>
</svg>
